# xmcd CD database file
#
# Track frame offsets:
#	150
#	29317
#	68722
#	97890
#	145520
#	170705
#
# Disc length: 2636 seconds
#
# Revision: 0
# Processed by: cddbd v1.5.2PL0 Copyright (c) Steve Scherf et al.
# Submitted via: CDex 2.15
#
DISCID=460a4a06
DTITLE=Andy Jaffe Sextet - Manhattan Projections
DYEAR=1984
DGENRE=Jazz
TTITLE0=Manhattan Projection
TTITLE1=Samba De Saudade
TTITLE2=Dersu
TTITLE3=So You Say
TTITLE4=Blues For Cannonball Adderly
TTITLE5=The Scorpion
EXTD=YEAR: 1984
EXTT0=
EXTT1=
EXTT2=
EXTT3=
EXTT4=
EXTT5=
PLAYORDER=
